<?xml version="1.0" encoding="utf-8"?>
<!-- Generator: Adobe Illustrator 19.0.0, SVG Export Plug-In . SVG Version: 6.00 Build 0)  -->
<svg version="1.1" id="Layer_1" xmlns="http://www.w3.org/2000/svg" xmlns:xlink="http://www.w3.org/1999/xlink" x="0px" y="0px"
	 viewBox="0 0 1000 327" style="enable-background:new 0 0 1000 327;" xml:space="preserve">
<style type="text/css">
	.Drop_x0020_Shadow{fill:none;}
	.Outer_x0020_Glow_x0020_5_x0020_pt{fill:none;}
	.Blue_x0020_Neon{fill:none;stroke:#8AACDA;stroke-width:7;stroke-linecap:round;stroke-linejoin:round;}
	.Chrome_x0020_Highlight{fill:url(#SVGID_1_);stroke:#FFFFFF;stroke-width:0.3629;stroke-miterlimit:1;}
	.Jive_GS{fill:#FFDD00;}
	.Alyssa_GS{fill:#A6D0E4;}
	.st0{fill:#FFFFFF;}
	.st1{fill:#00B53D;}
</style>
<linearGradient id="SVGID_1_" gradientUnits="userSpaceOnUse" x1="0" y1="-11.0255" x2="4.489659e-011" y2="-12.0255">
	<stop  offset="0" style="stop-color:#656565"/>
	<stop  offset="0.618" style="stop-color:#1B1B1B"/>
	<stop  offset="0.6292" style="stop-color:#545454"/>
	<stop  offset="0.9831" style="stop-color:#3E3E3E"/>
</linearGradient>
<polygon id="XMLID_11_" points="1000,0 1000,327 623.3,327 762.6,0 "/>
<g id="XMLID_3_">
	<path id="XMLID_32_" class="st0" d="M793.6,27.3v24.2H824V27.3h10.5v59.4H824V61.9h-30.4v24.8h-10.4V27.3H793.6z"/>
	<path id="XMLID_34_" class="st0" d="M857.7,22.8v10.8h-9.4V22.8H857.7z M857.6,40.3v46.5h-9.3V40.3H857.6z"/>
	<path id="XMLID_37_" class="st0" d="M902.5,40.3v9h-16.4c-4,0-6,2-6,6v31.5h-9.3V53.8c0-4.7,1-8.1,2.9-10.3
		c1.9-2.2,5.1-3.3,9.7-3.3H902.5z"/>
	<path id="XMLID_39_" class="st0" d="M942,40.3c5.5,0,9.5,1.2,12,3.7c2.5,2.5,3.7,6,3.7,10.5c0,4.3-1.2,7.6-3.6,9.9
		c-2.4,2.3-6.5,3.5-12.1,3.5h-22.1v3.3c0,1.9,0.5,3.4,1.6,4.6c1.1,1.2,2.9,1.8,5.5,1.8h28.4v9.1h-28.4c-2.9,0-5.4-0.4-7.4-1.1
		c-2-0.8-3.7-1.8-5-3.2c-1.3-1.4-2.3-3-2.9-4.8c-0.6-1.8-0.9-3.9-0.9-6.1V55.6c0-2.2,0.3-4.2,0.9-6.1c0.6-1.9,1.5-3.5,2.9-4.9
		c1.3-1.4,3-2.4,5-3.2c2-0.8,4.5-1.1,7.4-1.1H942z M919.8,60.6h21.8c2.5,0,4.3-0.5,5.3-1.5c1-1,1.5-2.3,1.5-4c0-1.8-0.5-3.2-1.6-4.2
		c-1.1-1.1-2.7-1.6-5-1.6h-15c-2.6,0-4.4,0.6-5.5,1.8c-1.1,1.2-1.6,2.8-1.6,4.6V60.6z"/>
	<path id="XMLID_42_" class="st0" d="M788.8,192.3h-11.1l18.4-49.5c1.2-3.4,2.8-6.1,4.9-8.1c2.1-2,5.1-2.9,9.1-2.9
		c4.4,0,7.7,1.2,9.9,3.6s3.3,5.5,3.3,9.4v35.1c0,1,0.3,1.8,0.8,2.4c0.6,0.6,1.3,0.9,2.2,0.9c1.6,0,2.8-0.8,3.3-2.5l14.4-37.9
		c1.2-3.4,2.8-6.1,4.9-8.1c2.1-2,5.1-2.9,9.1-2.9c4.4,0,7.7,1.2,9.9,3.6s3.3,5.5,3.3,9.4v47.5h-10.5v-47c0-1.1-0.3-1.9-0.8-2.5
		c-0.6-0.6-1.3-0.9-2.2-0.9c-0.8,0-1.4,0.2-2,0.7c-0.6,0.5-1,1.1-1.3,1.8l-14.4,37.9c-1.2,3.4-2.8,6.1-4.9,8.1
		c-2.1,2-5.2,2.9-9.2,2.9c-4.4,0-7.7-1.2-9.9-3.6c-2.2-2.4-3.3-5.5-3.3-9.5v-35c0-1.1-0.3-1.9-0.9-2.5c-0.6-0.6-1.3-0.9-2.2-0.9
		c-0.8,0-1.5,0.2-2,0.7c-0.5,0.5-0.9,1.1-1.2,1.8L788.8,192.3z"/>
	<path id="XMLID_44_" class="st0" d="M915.3,145.9c5.5,0,9.5,1.2,12,3.7c2.5,2.5,3.7,6,3.7,10.5c0,4.3-1.2,7.6-3.6,9.9
		c-2.4,2.3-6.5,3.5-12.1,3.5h-22.1v3.3c0,1.9,0.5,3.4,1.6,4.6c1.1,1.2,2.9,1.8,5.5,1.8h28.4v9.1h-28.4c-2.9,0-5.4-0.4-7.4-1.1
		c-2-0.8-3.7-1.8-5-3.2c-1.3-1.4-2.3-3-2.9-4.8c-0.6-1.8-0.9-3.9-0.9-6.1v-15.8c0-2.2,0.3-4.2,0.9-6.1c0.6-1.9,1.5-3.5,2.9-4.9
		c1.3-1.4,3-2.4,5-3.2c2-0.8,4.5-1.1,7.4-1.1H915.3z M893.1,166.2h21.8c2.5,0,4.3-0.5,5.3-1.5c1-1,1.5-2.3,1.5-4
		c0-1.8-0.5-3.2-1.6-4.2c-1.1-1.1-2.7-1.6-5-1.6h-15c-2.6,0-4.4,0.6-5.5,1.8c-1.1,1.2-1.6,2.8-1.6,4.6V166.2z"/>
	<path id="XMLID_47_" class="st0" d="M815.9,238.5c8.7,0,15.3,2.5,19.9,7.4c4.6,4.9,6.9,12.4,6.9,22.4c0,10-2.3,17.4-6.9,22.3
		c-4.6,4.9-11.3,7.3-19.9,7.3h-8.1c-8.7,0-15.3-2.4-19.9-7.3c-4.6-4.9-6.9-12.3-6.9-22.3c0-10,2.3-17.5,6.9-22.4
		c4.6-4.9,11.2-7.4,19.9-7.4H815.9z M807.8,248.9c-5.8,0-9.9,1.5-12.5,4.6c-2.6,3.1-3.9,8-3.9,14.9c0,6.8,1.3,11.7,3.9,14.7
		c2.6,3,6.8,4.5,12.6,4.5h8.1c5.7,0,9.8-1.5,12.5-4.5c2.6-3,3.9-7.9,3.9-14.7c0-6.8-1.3-11.7-3.9-14.8c-2.6-3-6.7-4.6-12.5-4.6
		H807.8z"/>
	<path id="XMLID_50_" class="st0" d="M880.2,251.5c7.9,0,13.8,1.8,17.6,5.3c3.8,3.5,5.8,8.6,5.8,15v26.1h-9.4v-26.1
		c0-3.7-1.1-6.5-3.3-8.4s-5.8-2.9-10.7-2.9H865c-0.8,0-1.1,0.4-1.1,1.3v36.2h-9.3v-39.2c0-2.8,0.5-4.6,1.5-5.7c1-1,2.7-1.5,5-1.5
		H880.2z"/>
</g>
<path id="XMLID_2_" d="M346.7,270.9H180.3c-3.8,0-7-3.1-7-7v-34.4c0-3.9,3.2-7,7-7h166.4c3.9,0,7,3.1,7,7v34.4
	C353.7,267.7,350.6,270.9,346.7,270.9z"/>
<g id="XMLID_7_">
	<path id="XMLID_10_" class="st0" d="M224,242.1l-1.4,1.8c-1.1-1.2-2.6-1.9-4.1-1.9c-2.9,0-5.2,2.3-5.2,5.2s2.3,5.2,5.2,5.2
		c1.5,0,3-0.7,4.1-1.7l1.5,1.6c-1.5,1.5-3.6,2.4-5.7,2.4c-4.3,0-7.6-3.3-7.6-7.5c0-4.2,3.4-7.4,7.7-7.4
		C220.5,239.9,222.6,240.7,224,242.1z"/>
	<path id="XMLID_13_" class="st0" d="M226.5,254.6v-15.6h2.4v15.6H226.5z"/>
	<path id="XMLID_15_" class="st0" d="M235.2,240.3c0,0.8-0.6,1.4-1.4,1.4s-1.4-0.6-1.4-1.4c0-0.9,0.6-1.5,1.4-1.5
		S235.2,239.4,235.2,240.3z M232.6,254.6v-11.2h2.4v11.2H232.6z"/>
	<path id="XMLID_18_" class="st0" d="M247.8,245.2l-1.3,1.6c-0.8-0.8-1.8-1.3-3.2-1.3c-1.9,0-3.3,1.4-3.3,3.6c0,2.1,1.4,3.6,3.3,3.6
		c1.4,0,2.5-0.5,3.3-1.3l1.3,1.3c-1,1.3-2.6,2.1-4.7,2.1c-3.3,0-5.6-2.3-5.6-5.6c0-3.4,2.3-5.7,5.6-5.7
		C245.2,243.4,246.8,244,247.8,245.2z"/>
	<path id="XMLID_20_" class="st0" d="M253,251.5v3.1h-2.4v-15.6h2.4v9.4l4.9-5h2.8l-4.1,4.3l4.5,6.8h-2.9l-3.3-5.1L253,251.5z"/>
	<path id="XMLID_22_" class="st0" d="M278.8,254.6v-6.1H271v6.1h-2.5v-14.7h2.5v6.4h7.8v-6.4h2.5v14.7H278.8z"/>
	<path id="XMLID_24_" class="st0" d="M294.8,250h-8.4c0.4,1.7,1.7,2.8,3.5,2.8c1.2,0,2.3-0.5,3.1-1.3l1.3,1.4
		c-1.1,1.2-2.7,1.9-4.6,1.9c-3.4,0-5.7-2.3-5.7-5.6c0-3.4,2.3-5.7,5.6-5.7C293.5,243.4,295.1,245.9,294.8,250z M292.7,248.2
		c-0.1-1.8-1.3-2.9-3.1-2.9c-1.8,0-3,1.1-3.3,2.9H292.7z"/>
	<path id="XMLID_27_" class="st0" d="M299.7,245.7c0.8-1.5,2.1-2.3,3.9-2.3v2.3c-2.2-0.1-3.7,1.2-3.9,3.1v5.8h-2.4v-11.2h2.4V245.7z
		"/>
	<path id="XMLID_29_" class="st0" d="M315.4,250H307c0.4,1.7,1.7,2.8,3.5,2.8c1.2,0,2.3-0.5,3.1-1.3l1.3,1.4
		c-1.1,1.2-2.7,1.9-4.6,1.9c-3.4,0-5.7-2.3-5.7-5.6c0-3.4,2.3-5.7,5.6-5.7C314.1,243.4,315.7,245.9,315.4,250z M313.3,248.2
		c-0.1-1.8-1.3-2.9-3.1-2.9c-1.8,0-3,1.1-3.3,2.9H313.3z"/>
</g>
<g id="navigation">
	<g id="fiverr_logo">
		<g id="logo">
			<path id="Fill-6" class="st1" d="M122.3,98.7c7.3,0,13.5-6.2,13.5-13.5c0-7.8-6.2-14-13.5-14c-7.3,0-13.5,6.2-13.5,14
				C108.8,92.4,115,98.7,122.3,98.7"/>
			<path id="Fill-8" class="st1" d="M136.3,107.5H74.5v-3.6c0-8.3,8.3-8.3,11.9-8.3c4.7,0,6.8,0.5,6.8,0.5V73.7c0,0-4.2-1-9.9-1
				c-12.5,0-36.4,3.6-36.4,31.7v3.1H35.5v20.8H47v43.6H36.6v20.8H87v-20.8H74.5v-43.6h33.8v43.6H97.9v20.8h48.8v-20.8h-10.4V107.5z"
				/>
			<path id="Fill-10" class="st1" d="M241.2,107.5h-44.1v20.8h7.3l-9.3,30.6c-2.1,5.2-2.6,11.4-2.6,11.4h-0.5c0,0-0.5-6.2-2.1-11.4
				l-9.3-30.6h7.3v-20.8h-44.1v20.8h9.3l22.9,64.4h32.7l23.4-64.4h9.3V107.5z"/>
			<path id="Fill-12" class="st1" d="M270.3,139.7c1-6.8,5.2-12.5,13-12.5c6.2,0,10.9,5.7,10.9,12.5H270.3z M322.8,147
				c0-23.9-14-41-38.4-41c-27,0-43.1,19.2-43.1,44.1c0,22.3,15.6,44.1,45.2,44.1c22.3,0,35.8-11.4,35.8-11.4l-9.9-19.7
				c0,0-11.4,7.8-23.4,7.8c-8.8,0-17.7-4.7-19.7-15.6h53C322.2,155.3,322.8,149.6,322.8,147z"/>
			<path id="Fill-14" class="st1" d="M441.2,127.2h-0.5c0,0,0.5-1.6,0.5-4.2v-4.7c0-7.3-4.2-10.9-11.9-10.9h-26v20.8h7.3
				c2.6,0,3.6,1.6,3.6,3.6v40h-10.9v20.8h50.4v-20.8h-11.4v-12.5c0-15.1,7.3-25.4,22.9-25.4c3.6,0,5.7,0.5,5.7,0.5v-28
				c0,0-1.6,0-3.1,0C455.2,106.4,444.8,115.8,441.2,127.2"/>
			<path id="Fill-16" class="st1" d="M366.9,127.2L366.9,127.2c0,0,0-1.6,0-4.2v-4.7c0-7.3-4.2-10.9-11.4-10.9H329v20.8h7.8
				c2.1,0,3.6,1.6,3.6,3.6v40H329v20.8h50.4v-20.8h-10.9v-12.5c0-15.1,7.3-25.4,22.9-25.4c3.1,0,5.7,0.5,5.7,0.5v-28
				c0,0-2.1,0-3.6,0C380.9,106.4,370.5,115.8,366.9,127.2"/>
		</g>
	</g>
</g>
<polygon id="XMLID_6_" class="st1" points="516.6,327 439.5,327 600.4,0 665.8,0 "/>
<polygon id="XMLID_4_" class="st1" points="623.3,327 559.6,327 704.1,0 762.6,0 "/>
<polygon id="XMLID_5_" points="638.9,147.5 559.6,327 580.4,187.1 665.8,0 "/>
</svg>
