<?xml version="1.0" encoding="utf-8"?>
<!-- Generator: Adobe Illustrator 19.0.0, SVG Export Plug-In . SVG Version: 6.00 Build 0)  -->
<svg version="1.1" id="Layer_1" xmlns="http://www.w3.org/2000/svg" xmlns:xlink="http://www.w3.org/1999/xlink" x="0px" y="0px"
	 viewBox="-3 12 1000 327" style="enable-background:new -3 12 1000 327;" xml:space="preserve">
<style type="text/css">
	.st0{fill:#6FDA44;}
	.st1{fill:#FFFFFF;}
</style>
<polygon id="XMLID_11_" points="-3,12 -3,339 232.6,339 376.2,12 "/>
<polygon id="XMLID_6_" class="st0" points="391.4,339 328.6,339 475.3,12.1 535.4,12.1 "/>
<polygon id="XMLID_4_" class="st0" points="295.7,339 231.1,339 376.4,12 434.9,12 "/>
<polygon id="XMLID_5_" points="412.8,151.4 328.6,339 351.1,208.9 434.9,12 "/>
<path d="M798.9,113.9c-18.9,0.1-34.3,15.6-34.2,35c0.1,19.3,15.6,34.7,34.5,34.6s34.3-15.6,34.2-35
	C833.4,129.1,817.8,113.8,798.9,113.9z M799.2,169.3c-11.1,0.1-20.2-8.9-20.3-20.1l0,0c-0.1-11.1,8.9-20.2,20.1-20.3l0,0
	c11.1-0.1,20.2,8.9,20.3,20.1l0,0C819.4,159.8,810,169.2,799.2,169.3z M875.5,130.3c-9.9,0-17.6,8.2-17.5,18.1l0.2,33.1l-15,0.1
	l-0.3-65.7l15-0.1l0.1,10.3c0,0,6.4-10.3,19.3-10.4h4.3l0.1,14.6C881.5,130.1,875.5,130.3,875.5,130.3z M725.5,116.4l11.4,45.1
	l11.8-45.2l15-0.1l-18.6,65.8l-14.6,0.1l-11.8-45.9l-11.4,46l-14.6,0.1l-19.6-65.6l14.6-0.1l13.1,45.1l10.5-45.2
	C711.3,116.4,725.5,116.4,725.5,116.4z M925.4,145.4c10.3-6.1,17.5-17.3,17.5-30.2l-15,0.1c0.1,11.2-8.9,20.2-19.7,20.3h-2.1
	l-0.2-52l-15,0.1l0.5,97.5l15-0.1l-0.1-30.9h1.7c1.7,0,3.4,0.8,3.9,2.1l21.2,28.7l17.6-0.1C950.5,181.1,925.4,145.4,925.4,145.4z"/>
<path class="st0" d="M638.2,114.6c-16.3,0.1-28.7,10.9-33.4,28.1c-7.8-12-13.9-25.7-17.4-37.3l-17.2,0.1l0.2,45.5
	c0,9-7.2,16.4-16.3,16.4c-9,0-16.4-7.2-16.4-16.3l-0.2-45.5l-17.2,0.1l0.2,45.5c0.1,18.9,15.2,33.9,33.7,33.8s33.4-15.2,33.4-34.1
	v-7.7c3.5,6.9,7.8,14.1,12.6,20.6l-10.5,50.3l17.6-0.1l7.6-36.6c6.9,4.3,14.6,6.8,23.7,6.8c18.9-0.1,34.3-15.6,34.2-35.4
	C672.7,129.9,657.2,114.5,638.2,114.6z M638.5,166.6c-6.9,0-13.8-2.9-19.4-7.6l1.7-6.9v-0.4c1.3-7.3,5.1-19.8,17.9-19.8
	c9.5,0,17.2,7.6,17.3,17.1C655.6,158.8,647.5,166.6,638.5,166.6z"/>
<g>
	<path id="XMLID_2_" d="M819.3,281.8H652.9c-3.8,0-7-3.1-7-7v-34.4c0-3.8,3.2-7,7-7h166.4c3.8,0,7,3.2,7,7v34.4
		C826.3,278.7,823.2,281.8,819.3,281.8z"/>
	<g id="XMLID_7_">
		<path id="XMLID_10_" class="st1" d="M696.7,253.1l-1.4,1.8c-1.1-1.2-2.6-1.9-4.1-1.9c-2.9,0-5.2,2.3-5.2,5.2
			c0,2.9,2.3,5.2,5.2,5.2c1.5,0,3-0.7,4.1-1.7l1.5,1.6c-1.5,1.5-3.6,2.4-5.7,2.4c-4.3,0-7.6-3.3-7.6-7.5c0-4.2,3.4-7.4,7.7-7.4
			C693.1,250.9,695.2,251.7,696.7,253.1z"/>
		<path id="XMLID_13_" class="st1" d="M699.2,265.5v-15.6h2.4v15.6H699.2z"/>
		<path id="XMLID_15_" class="st1" d="M707.8,251.3c0,0.8-0.6,1.4-1.4,1.4s-1.4-0.6-1.4-1.4c0-0.9,0.6-1.5,1.4-1.5
			S707.8,250.4,707.8,251.3z M705.2,265.5v-11.2h2.4v11.2H705.2z"/>
		<path id="XMLID_18_" class="st1" d="M720.4,256.2l-1.3,1.6c-0.8-0.8-1.8-1.3-3.2-1.3c-1.9,0-3.3,1.4-3.3,3.6
			c0,2.1,1.4,3.6,3.3,3.6c1.4,0,2.5-0.5,3.3-1.3l1.3,1.3c-1,1.3-2.6,2.1-4.7,2.1c-3.3,0-5.6-2.3-5.6-5.6c0-3.4,2.3-5.7,5.6-5.7
			C717.8,254.4,719.4,254.9,720.4,256.2z"/>
		<path id="XMLID_20_" class="st1" d="M725.6,262.5v3.1h-2.4v-15.6h2.4v9.4l4.9-5h2.8l-4.1,4.3l4.5,6.8h-2.9l-3.3-5.1L725.6,262.5z"
			/>
		<path id="XMLID_22_" class="st1" d="M751.4,265.5v-6.1h-7.8v6.1h-2.5v-14.7h2.5v6.4h7.8v-6.4h2.5v14.7H751.4z"/>
		<path id="XMLID_24_" class="st1" d="M767.4,261H759c0.4,1.7,1.7,2.8,3.5,2.8c1.2,0,2.3-0.5,3.1-1.3l1.3,1.4
			c-1.1,1.2-2.7,1.9-4.6,1.9c-3.4,0-5.7-2.3-5.7-5.6c0-3.4,2.3-5.7,5.6-5.7C766.1,254.4,767.7,256.9,767.4,261z M765.3,259.2
			c-0.1-1.8-1.3-2.9-3.1-2.9s-3,1.1-3.3,2.9H765.3z"/>
		<path id="XMLID_27_" class="st1" d="M772.3,256.7c0.8-1.5,2.1-2.3,3.9-2.3v2.3c-2.2-0.1-3.7,1.2-3.9,3.1v5.8h-2.4v-11.2h2.4V256.7
			z"/>
		<path id="XMLID_29_" class="st1" d="M788,261h-8.4c0.4,1.7,1.7,2.8,3.5,2.8c1.2,0,2.3-0.5,3.1-1.3l1.3,1.4
			c-1.1,1.2-2.7,1.9-4.6,1.9c-3.4,0-5.7-2.3-5.7-5.6c0-3.4,2.3-5.7,5.6-5.7C786.7,254.4,788.3,256.9,788,261z M785.9,259.2
			c-0.1-1.8-1.3-2.9-3.1-2.9s-3,1.1-3.3,2.9H785.9z"/>
	</g>
</g>
<g id="XMLID_3_">
	<path id="XMLID_32_" class="st1" d="M66.8,37.3v24.5h30.7V37.3h10.6v60.1H97.5V72.3H66.8v25.1H56.3V37.3H66.8z"/>
	<path id="XMLID_34_" class="st1" d="M131.6,32.7v10.9h-9.5V32.7H131.6z M131.5,50.4v47h-9.4v-47C122.1,50.4,131.5,50.4,131.5,50.4z
		"/>
	<path id="XMLID_37_" class="st1" d="M177,50.4v9.1h-16.6c-4,0-6.1,2-6.1,6.1v31.9h-9.4V64.1c0-4.7,1-8.2,2.9-10.4s5.2-3.3,9.8-3.3
		H177z"/>
	<path id="XMLID_39_" class="st1" d="M216.9,50.4c5.6,0,9.6,1.3,12.1,3.8s3.7,6.1,3.7,10.6c0,4.3-1.2,7.7-3.6,10
		c-2.4,2.3-6.5,3.5-12.3,3.5h-22.3v3.4c0,1.9,0.5,3.5,1.6,4.7s3,1.8,5.6,1.8h28.7v9.2h-28.7c-3,0-5.5-0.4-7.5-1.2
		c-2-0.8-3.7-1.9-5.1-3.2c-1.3-1.4-2.3-3-2.9-4.9c-0.6-1.9-0.9-3.9-0.9-6.2v-16c0-2.2,0.3-4.2,0.9-6.1c0.6-1.9,1.6-3.5,2.9-4.9
		c1.3-1.4,3-2.5,5.1-3.2c2-0.8,4.6-1.2,7.5-1.2h15.2V50.4z M194.4,71h22.1c2.6,0,4.3-0.5,5.4-1.5c1-1,1.6-2.4,1.6-4.1
		c0-1.8-0.5-3.2-1.6-4.3s-2.8-1.6-5.1-1.6h-15.1c-2.6,0-4.5,0.6-5.6,1.9c-1.1,1.2-1.6,2.8-1.6,4.6L194.4,71L194.4,71z"/>
	<path id="XMLID_42_" class="st1" d="M61.9,204.2H50.7l18.6-50c1.2-3.4,2.8-6.2,4.9-8.1c2.1-2,5.2-3,9.2-3c4.5,0,7.8,1.2,10,3.6
		s3.3,5.6,3.3,9.5v35.5c0,1,0.3,1.8,0.8,2.4c0.6,0.6,1.3,0.9,2.2,0.9c1.7,0,2.8-0.8,3.4-2.5l14.6-38.4c1.2-3.4,2.8-6.2,4.9-8.1
		c2.1-2,5.2-3,9.2-3c4.5,0,7.8,1.2,10,3.6c2.2,2.4,3.3,5.6,3.3,9.5v48.1h-10.6v-47.5c0-1.1-0.3-1.9-0.8-2.5
		c-0.6-0.6-1.3-0.9-2.2-0.9c-0.8,0-1.4,0.2-2,0.7c-0.6,0.5-1,1.1-1.3,1.9l-14.4,38.2c-1.2,3.4-2.8,6.2-5,8.1c-2.1,2-5.2,3-9.3,3
		c-4.5,0-7.8-1.2-10-3.6c-2.2-2.4-3.3-5.6-3.3-9.6v-35.4c0-1.1-0.3-1.9-0.9-2.5s-1.3-0.9-2.2-0.9c-0.8,0-1.5,0.2-2,0.7
		s-0.9,1.1-1.2,1.9L61.9,204.2z"/>
	<path id="XMLID_44_" class="st1" d="M189.9,157.2c5.6,0,9.6,1.3,12.1,3.8s3.7,6.1,3.7,10.6c0,4.3-1.2,7.7-3.6,10
		c-2.4,2.3-6.5,3.5-12.3,3.5h-22.3v3.4c0,1.9,0.5,3.5,1.6,4.7s3,1.8,5.6,1.8h28.7v9.2h-28.7c-3,0-5.5-0.4-7.5-1.2s-3.7-1.9-5.1-3.2
		c-1.3-1.4-2.3-3-2.9-4.9c-0.6-1.9-0.9-3.9-0.9-6.2v-16c0-2.2,0.3-4.2,0.9-6.1c0.6-1.9,1.6-3.5,2.9-4.9c1.3-1.4,3-2.5,5.1-3.2
		c2-0.8,4.6-1.2,7.5-1.2h15.2V157.2z M167.5,177.8h22.1c2.6,0,4.3-0.5,5.4-1.5c1-1,1.6-2.4,1.6-4.1c0-1.8-0.5-3.2-1.6-4.3
		s-2.8-1.6-5.1-1.6h-15.1c-2.6,0-4.5,0.6-5.6,1.9c-1.1,1.2-1.6,2.8-1.6,4.6L167.5,177.8L167.5,177.8z"/>
	<path id="XMLID_47_" class="st1" d="M89.4,250.9c8.8,0,15.5,2.5,20.2,7.5s7,12.6,7,22.7c0,10.1-2.3,17.6-7,22.5
		c-4.7,4.9-11.4,7.4-20.2,7.4h-8.2c-8.8,0-15.5-2.5-20.2-7.4c-4.7-4.9-7-12.4-7-22.5c0-10.1,2.3-17.7,7-22.7s11.4-7.5,20.2-7.5H89.4
		z M81.2,261.4c-5.8,0-10,1.5-12.7,4.6c-2.6,3.1-4,8.1-4,15s1.3,11.8,3.9,14.9c2.6,3,6.9,4.5,12.7,4.5h8.2c5.8,0,10-1.5,12.6-4.6
		c2.6-3.1,4-8,4-14.9c0-6.9-1.3-11.9-3.9-15c-2.6-3.1-6.8-4.6-12.6-4.6h-8.2V261.4z"/>
	<path id="XMLID_50_" class="st1" d="M154.4,264c8,0,14,1.8,17.8,5.4c3.9,3.6,5.8,8.6,5.8,15.2V311h-9.5v-26.4
		c0-3.7-1.1-6.6-3.3-8.5c-2.2-2-5.8-2.9-10.8-2.9H139c-0.8,0-1.2,0.4-1.2,1.3V311h-9.4v-39.7c0-2.8,0.5-4.7,1.5-5.7s2.7-1.6,5.1-1.6
		L154.4,264L154.4,264z"/>
</g>
</svg>
